<svg width="261" height="39" viewBox="0 0 261 39" fill="none" xmlns="http://www.w3.org/2000/svg">
<path d="M57.4209 8.87593L43.0297 17.7809L44.9737 20.8575L41.3436 27.7267C38.2697 28.6061 35.0771 28.9995 31.8815 28.8925L32.5935 16.646L38.2756 15.2982L28.7105 0L19.1453 15.2982L24.8274 16.646L25.5394 28.8925C22.3438 28.9995 19.1512 28.6061 16.0773 27.7267L12.4472 20.8575L14.3912 17.7809L0 8.87593L9.30015 35.5867H9.32015C19.0694 38.6334 29.4033 39.3188 39.4696 37.5865C42.4121 37.2004 45.3103 36.5307 48.1237 35.5867L57.4209 8.87593Z" fill="#650707"/>
<path d="M79.8543 31.5432C80.503 31.5838 81.149 31.4296 81.7093 31.1003C81.9178 30.9611 82.0868 30.7704 82.1998 30.5466C82.3128 30.3229 82.366 30.0738 82.3543 29.8234V29.7704C82.361 29.5285 82.3072 29.2887 82.1979 29.0728C82.0886 28.8568 81.9272 28.6715 81.7283 28.5336C81.1464 28.1842 80.4701 28.0245 79.7933 28.0766H75.8162V31.5432H79.8543ZM79.1013 24.4221C79.7402 24.4625 80.3778 24.324 80.9423 24.0221C81.1476 23.8906 81.314 23.7066 81.4241 23.4891C81.5342 23.2716 81.584 23.0285 81.5683 22.7853V22.7323C81.5799 22.4984 81.5316 22.2655 81.428 22.0555C81.3244 21.8456 81.169 21.6655 80.9763 21.5324C80.4405 21.219 79.8227 21.0741 79.2033 21.1165H75.8162V24.4221H79.1013ZM70.7432 16.923H80.3703C81.3975 16.8994 82.4216 17.0436 83.4024 17.3499C84.1901 17.6031 84.9083 18.0358 85.5004 18.6138C85.8773 18.9923 86.1781 19.4397 86.3864 19.9316C86.6097 20.4777 86.7192 21.0635 86.7084 21.6534V21.7064C86.7534 22.6566 86.4651 23.5927 85.8934 24.3531C85.3402 25.0301 84.628 25.5598 83.8204 25.8949C84.8533 26.201 85.7937 26.7598 86.5564 27.5207C87.2727 28.3398 87.637 29.4083 87.5704 30.4943V30.5473C87.6009 31.2891 87.4459 32.0268 87.1194 32.6935C86.7928 33.3603 86.3051 33.9351 85.7004 34.3659C84.1388 35.3685 82.2988 35.8485 80.4463 35.7367H70.7462L70.7432 16.923Z" fill="#650707"/>
<path d="M107.522 31.4002C108.199 31.4097 108.87 31.2733 109.489 31.0003C110.063 30.7425 110.577 30.3679 110.999 29.9004C111.419 29.4322 111.748 28.8896 111.969 28.3006C112.204 27.6828 112.323 27.0269 112.32 26.3658V26.3128C112.323 25.6515 112.204 24.9952 111.969 24.3771C111.742 23.7807 111.402 23.2335 110.969 22.7653C110.537 22.2977 110.018 21.9187 109.441 21.6494C108.825 21.3671 108.153 21.225 107.474 21.2335C106.802 21.2229 106.136 21.3594 105.521 21.6334C104.95 21.8953 104.436 22.2693 104.011 22.7333C103.585 23.1967 103.256 23.7406 103.042 24.3331C102.815 24.953 102.701 25.6086 102.704 26.2688V26.3218C102.701 26.9829 102.82 27.6388 103.055 28.2566C103.28 28.8505 103.615 29.3972 104.04 29.8684C104.468 30.3381 104.986 30.7169 105.563 30.9823C106.18 31.2649 106.852 31.407 107.53 31.3982L107.522 31.4002ZM107.489 36.0977C106.108 36.1116 104.738 35.8517 103.457 35.3328C102.266 34.8522 101.179 34.1449 100.257 33.25C99.3585 32.3681 98.6416 31.3184 98.1473 30.1604C97.6339 28.963 97.3734 27.6725 97.3823 26.3698V26.3168C97.3748 25.0113 97.6352 23.7182 98.1473 22.5173C98.6443 21.3459 99.371 20.2858 100.284 19.3997C101.217 18.5092 102.311 17.805 103.508 17.3249C104.789 16.806 106.159 16.546 107.54 16.56C108.92 16.5466 110.289 16.8066 111.568 17.3249C112.759 17.8056 113.846 18.5129 114.768 19.4077C115.666 20.2871 116.383 21.3341 116.879 22.4893C117.39 23.6837 117.65 24.9706 117.642 26.2698V26.3228C117.649 27.6283 117.389 28.9214 116.877 30.1224C116.381 31.2948 115.655 32.3559 114.742 33.243C113.811 34.1429 112.715 34.8557 111.516 35.3428C110.235 35.8618 108.865 36.1218 107.483 36.1077" fill="#650707"/>
<path d="M137.075 25.9529C137.814 26.0021 138.546 25.7897 139.144 25.3529C139.382 25.1559 139.571 24.9067 139.697 24.6248C139.822 24.3428 139.881 24.0356 139.869 23.7271V23.6741C139.892 23.3541 139.836 23.0333 139.704 22.7404C139.573 22.4475 139.372 22.1916 139.118 21.9953C138.504 21.5965 137.78 21.4035 137.049 21.4444H133.634V25.9599L137.075 25.9529ZM128.421 16.923H137.321C138.57 16.8922 139.814 17.0741 141.002 17.4609C141.922 17.7661 142.759 18.2793 143.448 18.9607C144.014 19.5357 144.455 20.2224 144.741 20.9769C145.027 21.7314 145.153 22.5373 145.111 23.3432V23.3962C145.161 24.678 144.793 25.9413 144.062 26.9957C143.34 27.9664 142.365 28.7207 141.244 29.1765L145.729 35.7417H139.708L135.919 30.0424H133.634V35.7417H128.42L128.421 16.923Z" fill="#650707"/>
<path d="M163.153 31.1142C164.522 31.1807 165.868 30.7404 166.933 29.8774C167.419 29.4347 167.8 28.8885 168.048 28.2791C168.296 27.6696 168.404 27.0124 168.364 26.3558V26.3008C168.4 25.6469 168.291 24.9931 168.043 24.3867C167.796 23.7804 167.416 23.2367 166.933 22.7952C165.872 21.9241 164.526 21.4779 163.156 21.5434H161.024V31.1102L163.153 31.1142ZM155.806 16.9239H163.063C164.59 16.8999 166.111 17.1317 167.563 17.6099C168.793 18.0166 169.927 18.6706 170.895 19.5316C171.793 20.3482 172.5 21.3534 172.964 22.4753C173.45 23.6669 173.693 24.9438 173.679 26.2308V26.2838C173.692 27.5786 173.445 28.8628 172.953 30.0604C172.48 31.2013 171.763 32.2251 170.853 33.06C169.874 33.9403 168.726 34.6122 167.48 35.0348C166.022 35.5295 164.491 35.7703 162.952 35.7467H155.803L155.806 16.9239Z" fill="#650707"/>
<path d="M195.504 28.3456L193.404 22.9982L191.282 28.3456H195.504ZM190.935 16.789H195.961L203.97 35.7357H198.379L197.009 32.3831H189.753L188.41 35.7437H182.932L190.935 16.789Z" fill="#650707"/>
<path d="M222.328 36.0836C221.1 36.0999 219.876 35.9272 218.7 35.5717C217.679 35.2648 216.742 34.7297 215.958 34.0069C215.179 33.2585 214.586 32.3385 214.225 31.3202C213.799 30.0895 213.596 28.7927 213.625 27.4907V16.9279H218.947V27.3787C218.859 28.4692 219.196 29.5516 219.886 30.4003C220.211 30.7306 220.601 30.9887 221.032 31.1577C221.462 31.3267 221.924 31.4029 222.386 31.3812C222.845 31.4032 223.303 31.3312 223.733 31.1698C224.163 31.0083 224.556 30.7608 224.886 30.4423C225.228 30.0396 225.486 29.5736 225.648 29.0709C225.809 28.5682 225.869 28.0387 225.825 27.5127V16.93H231.146V27.3577C231.178 28.6967 230.965 30.0303 230.52 31.2932C230.146 32.3232 229.539 33.2527 228.747 34.0089C227.955 34.7329 227.01 35.2692 225.982 35.5777C224.802 35.9326 223.573 36.1052 222.34 36.0896" fill="#650707"/>
<path d="M247.379 26.1688L241.198 16.924H247.191L250.523 22.2233L253.882 16.924H259.741L253.56 26.1118L260.01 35.7327H254.017L250.417 30.0624L246.789 35.7357H240.93L247.379 26.1688Z" fill="#650707"/>
</svg>
