<svg xmlns="http://www.w3.org/2000/svg" width="260" height="38.531" viewBox="0 0 260 38.531">
  <g id="logo" transform="translate(-1105.845 -213.152)">
    <g id="g48" transform="translate(1105.845 213.152)">
      <path id="path50" d="M-122.4-18.931l-14.391,8.906,1.944,3.077-3.63,6.87a30.667,30.667,0,0,1-9.462,1.166l.712-12.248,5.682-1.348-9.565-15.3-9.565,15.3,5.682,1.348.712,12.248a30.666,30.666,0,0,1-9.462-1.166l-3.63-6.87,1.944-3.077-14.391-8.906,9.3,26.714h.02a64.43,64.43,0,0,0,30.149,2,46.03,46.03,0,0,0,8.654-2Z" transform="translate(179.814 27.812)"/>
    </g>
    <g id="bordaux" transform="translate(1176.579 229.707)">
      <g id="g52" transform="translate(0 0.372)">
        <path id="path54" d="M-14.116-22.651a3.259,3.259,0,0,0,1.855-.443,1.454,1.454,0,0,0,.645-1.277v-.053a1.457,1.457,0,0,0-.626-1.237,3.271,3.271,0,0,0-1.935-.457h-3.977v3.467Zm-.753-7.122a3.443,3.443,0,0,0,1.841-.4,1.365,1.365,0,0,0,.626-1.237v-.053a1.376,1.376,0,0,0-.592-1.2,3.093,3.093,0,0,0-1.773-.416h-3.387v3.306Zm-8.358-7.5H-13.6a9.441,9.441,0,0,1,3.032.427A5.345,5.345,0,0,1-8.47-35.582a4.176,4.176,0,0,1,.886,1.318,4.34,4.34,0,0,1,.322,1.722v.053a4.084,4.084,0,0,1-.815,2.647A5.3,5.3,0,0,1-10.15-28.3a6.482,6.482,0,0,1,2.736,1.626A4.134,4.134,0,0,1-6.4-23.7v.053A4.464,4.464,0,0,1-8.27-19.828a8.748,8.748,0,0,1-5.254,1.371h-9.7Z" transform="translate(23.229 37.275)"/>
      </g>
      <g id="g56" transform="translate(26.637 0)">
        <path id="path58" d="M-15.719-23.036a4.713,4.713,0,0,0,1.967-.4,4.527,4.527,0,0,0,1.509-1.1,5.051,5.051,0,0,0,.97-1.6,5.361,5.361,0,0,0,.351-1.935v-.053a5.367,5.367,0,0,0-.351-1.936,4.977,4.977,0,0,0-1-1.612A4.9,4.9,0,0,0-13.8-32.788a4.589,4.589,0,0,0-1.967-.416,4.614,4.614,0,0,0-1.953.4,4.7,4.7,0,0,0-1.51,1.1,4.73,4.73,0,0,0-.969,1.6,5.533,5.533,0,0,0-.338,1.936v.053a5.361,5.361,0,0,0,.351,1.935,5.1,5.1,0,0,0,.985,1.612,4.735,4.735,0,0,0,1.523,1.114,4.58,4.58,0,0,0,1.967.416m-.041,4.7a10.451,10.451,0,0,1-4.032-.765,9.92,9.92,0,0,1-3.2-2.083,9.62,9.62,0,0,1-2.11-3.09,9.457,9.457,0,0,1-.765-3.791v-.053a9.548,9.548,0,0,1,.765-3.8,9.531,9.531,0,0,1,2.137-3.118,10.13,10.13,0,0,1,3.224-2.075,10.451,10.451,0,0,1,4.032-.765,10.447,10.447,0,0,1,4.027.765,9.927,9.927,0,0,1,3.2,2.083,9.623,9.623,0,0,1,2.111,3.082A9.46,9.46,0,0,1-5.6-28.167v.053a9.556,9.556,0,0,1-.765,3.8A9.524,9.524,0,0,1-8.5-21.193a10.118,10.118,0,0,1-3.226,2.1,10.446,10.446,0,0,1-4.032.765" transform="translate(25.863 37.889)"/>
      </g>
      <g id="g60" transform="translate(57.677 0.37)">
        <path id="path62" d="M-13.409-13.99a3.152,3.152,0,0,0,2.069-.6,2.008,2.008,0,0,0,.725-1.626v-.053a1.946,1.946,0,0,0-.751-1.679,3.443,3.443,0,0,0-2.069-.551H-16.85v4.516Zm-8.654-9.031h8.9a11.011,11.011,0,0,1,3.681.538,6.3,6.3,0,0,1,2.446,1.5A5.813,5.813,0,0,1-5.373-16.6v.053a5.917,5.917,0,0,1-1.049,3.6A6.622,6.622,0,0,1-9.24-10.766L-4.755-4.2h-6.021l-3.789-5.7h-2.285v5.7h-5.214Z" transform="translate(22.065 23.025)"/>
      </g>
      <g id="g64" transform="translate(85.064 0.373)">
        <path id="path66" d="M-11.38-21.986A5.574,5.574,0,0,0-7.6-23.223a4.4,4.4,0,0,0,1.431-3.522V-26.8A4.412,4.412,0,0,0-7.6-30.306a5.533,5.533,0,0,0-3.777-1.252h-2.132v9.568Zm-7.346-14.192h7.256a13.689,13.689,0,0,1,4.5.686,9.5,9.5,0,0,1,3.332,1.922,8.227,8.227,0,0,1,2.069,2.944A9.646,9.646,0,0,1-.854-26.87v.053A9.675,9.675,0,0,1-1.58-23.04a8.474,8.474,0,0,1-2.1,3,9.7,9.7,0,0,1-3.373,1.975,13.444,13.444,0,0,1-4.528.712h-7.148Z" transform="translate(18.726 36.18)"/>
      </g>
      <g id="g68" transform="translate(112.189 0.24)">
        <path id="path70" d="M-19.492-17.906l-2.1-5.348-2.122,5.348Zm-4.569-11.558h5.026l8.009,18.949h-5.591l-1.37-3.353h-7.256l-1.343,3.361h-5.478Z" transform="translate(32.064 29.464)"/>
      </g>
      <g id="g72" transform="translate(142.875 0.379)">
        <path id="path74" d="M-13.491-29.694a11.989,11.989,0,0,1-3.628-.512,7.028,7.028,0,0,1-2.742-1.565,6.937,6.937,0,0,1-1.733-2.687,10.968,10.968,0,0,1-.6-3.83V-48.852h5.322V-38.4a4.248,4.248,0,0,0,.939,3.022,3.287,3.287,0,0,0,2.5.981,3.372,3.372,0,0,0,2.5-.939,4.018,4.018,0,0,0,.939-2.93V-48.85h5.32v10.429A11.029,11.029,0,0,1-5.3-34.485a7.094,7.094,0,0,1-1.773,2.716A7.136,7.136,0,0,1-9.837-30.2a12.123,12.123,0,0,1-3.642.512" transform="translate(22.201 48.852)"/>
      </g>
      <g id="g76" transform="translate(170.186 0.375)">
        <path id="path78" d="M-9.994-14.325l-6.181-9.246h5.993l3.332,5.3,3.359-5.3H2.368l-6.181,9.189L2.637-4.76H-3.356l-3.6-5.671-3.628,5.674h-5.859Z" transform="translate(16.443 23.571)"/>
      </g>
    </g>
  </g>
</svg>
